<svg xmlns="http://www.w3.org/2000/svg" width="12" height="15.326" viewBox="0 0 12 15.326">
  <g id="カギアイコン" transform="translate(-55.558)">
    <path id="Path_7" data-name="Path 7" d="M66.094,6.133v-1.6a4.536,4.536,0,0,0-9.073,0v1.6H55.558v6.29a2.9,2.9,0,0,0,2.9,2.9h6.193a2.9,2.9,0,0,0,2.9-2.9V6.133Zm-6.871-1.6a2.32,2.32,0,0,1,.183-.908A2.347,2.347,0,0,1,60.253,2.6a2.343,2.343,0,0,1,2.213-.215,2.349,2.349,0,0,1,1.028.847,2.318,2.318,0,0,1,.4,1.3v1.6H59.224Zm2.334,7.209a1.5,1.5,0,1,1,1.5-1.5A1.5,1.5,0,0,1,61.558,11.745Z" transform="translate(0 0)" fill="#8ac4c3"/>
  </g>
</svg>
