<svg xmlns="http://www.w3.org/2000/svg" width="12" height="15.736" viewBox="0 0 12 15.736">
  <g id="人物アイコン" transform="translate(-42.768)">
    <path id="Path_8" data-name="Path 8" d="M54.456,314.3a7.13,7.13,0,0,0-2.825-3.513,4,4,0,0,1-5.726,0,7.128,7.128,0,0,0-2.825,3.513c-.707,1.678-.153,4.053,1.069,4.053h9.238C54.609,318.351,55.163,315.976,54.456,314.3Z" transform="translate(0 -302.615)" fill="#8ac4c3"/>
    <path id="Path_9" data-name="Path 9" d="M125.7,7.824a3.739,3.739,0,0,0,3.944-3.494V3.494a3.973,3.973,0,0,0-7.889,0v.837A3.74,3.74,0,0,0,125.7,7.824Z" transform="translate(-76.93)" fill="#8ac4c3"/>
  </g>
</svg>
